<svg xmlns="http://www.w3.org/2000/svg" width="224" height="68" viewBox="0 0 224 68">
  <g id="topRankCard" transform="translate(-1362 -298)">
    <rect id="Rectangle_75" data-name="Rectangle 75" width="28" height="12" transform="translate(1453 348)" fill="#00fffe"/>
    <rect id="Rectangle_77" data-name="Rectangle 77" width="95" height="12" transform="translate(1432 346)" fill="#00fffe"/>
    <rect id="Rectangle_78" data-name="Rectangle 78" width="7" height="12" transform="translate(1387 348)" fill="#00fffe"/>
    <rect id="Rectangle_79" data-name="Rectangle 79" width="22" height="12" transform="translate(1398 348)" fill="#00fffe"/>
    <rect id="Rectangle_80" data-name="Rectangle 80" width="16" height="12" transform="translate(1400 351)" fill="#00fffe"/>
    <rect id="Rectangle_81" data-name="Rectangle 81" width="3" height="12" transform="translate(1548 298)" fill="#00fffe"/>
    <rect id="Rectangle_82" data-name="Rectangle 82" width="3" height="12" transform="translate(1554 298)" fill="#00fffe"/>
    <rect id="Rectangle_83" data-name="Rectangle 83" width="3" height="12" transform="translate(1560 298)" fill="#00fffe"/>
    <rect id="Rectangle_76" data-name="Rectangle 76" width="28" height="34" transform="translate(1558 325)" fill="#00fffe"/>
    <g id="Rectangle_73" data-name="Rectangle 73" transform="translate(1362 302)" stroke="#00fffe" stroke-width="1">
      <rect width="221" height="55" stroke="none"/>
      <rect x="0.5" y="0.5" width="220" height="54" fill="none"/>
    </g>
    <line id="Line_258" data-name="Line 258" x2="161" transform="translate(1414.5 361.5)" fill="none" stroke="#00fffe" stroke-linecap="round" stroke-width="1"/>
    <line id="Line_259" data-name="Line 259" y2="5" transform="translate(1575.5 356.5)" fill="none" stroke="#00fffe" stroke-linecap="round" stroke-width="1"/>
    <line id="Line_260" data-name="Line 260" y2="4" transform="translate(1410.5 361.5)" fill="none" stroke="#00fffe" stroke-linecap="round" stroke-width="1"/>
    <line id="Line_261" data-name="Line 261" x2="50" transform="translate(1410.5 365.5)" fill="none" stroke="#00fffe" stroke-linecap="round" stroke-width="1"/>
    <path id="Path_87" data-name="Path 87" d="M0-6.483v8.5" transform="translate(1460.5 363.483)" fill="none" stroke="#00fffe" stroke-linecap="round" stroke-width="1"/>
    <line id="Line_266" data-name="Line 266" y2="8" transform="translate(1390.5 357.5)" fill="none" stroke="#00fffe" stroke-linecap="round" stroke-width="1"/>
    <line id="Line_267" data-name="Line 267" y2="3" transform="translate(1403.5 362.5)" fill="none" stroke="#00fffe" stroke-linecap="round" stroke-width="1"/>
    <line id="Line_268" data-name="Line 268" x2="13" transform="translate(1390.5 365.5)" fill="none" stroke="#00fffe" stroke-linecap="round" stroke-width="1"/>
    <line id="Line_269" data-name="Line 269" x2="20.5" transform="translate(1382 358.5)" fill="none" stroke="#00fffe" stroke-linecap="round" stroke-width="1"/>
  </g>
</svg>
