<svg width="30" height="30" viewBox="0 0 30 30" fill="none" xmlns="http://www.w3.org/2000/svg">
<path d="M30 6.04999V24.1362L24.3516 30H6.62046L0 24.0138V6.04999L6.25563 0H23.7469L30 6.04999Z" fill="url(#paint0_linear_77:2901)"/>
<path d="M29.3775 6.64941V23.5241L26.2012 21.6418V8.49349L29.3775 6.64941Z" fill="#2FBADD"/>
<path d="M8.47017 4.09619L3.79885 8.49341L0.622559 6.64933L6.62052 1.00488L8.47017 4.09619Z" fill="#6DF2F7"/>
<path d="M23.3845 1.00488L21.5323 4.09619H8.47001L6.62036 1.00488H23.3845Z" fill="#A2FAF8"/>
<path d="M29.3775 6.64933L26.2012 8.49341L21.5325 4.09619L23.3847 1.00488L29.3775 6.64933Z" fill="#45DFFA"/>
<path d="M29.3774 23.5239L23.9636 28.9949L21.9839 25.9036L26.2011 21.6416L29.3774 23.5239Z" fill="#98F8FC"/>
<path d="M23.9636 28.9951H6.96729L8.7404 25.9038H21.9839L23.9636 28.9951Z" fill="#6DF2F7"/>
<path d="M8.74059 25.9035L6.96748 28.9949L0.622559 23.4091L3.79885 21.5522L8.74059 25.9035Z" fill="#A2FAF8"/>
<path d="M3.79885 8.49349V21.5525L0.622559 23.4093V6.64941L3.79885 8.49349Z" fill="#45DFFA"/>
<path d="M26.2012 8.4934V21.6417L21.984 25.9037H8.74057L3.79883 21.5524V8.4934L8.47014 4.09619H21.5325L26.2012 8.4934Z" fill="#BCFCFB"/>
<path d="M25.9587 8.63634V21.4964L21.8333 25.6666H8.87816L4.04102 21.4097V8.63634L8.61283 4.3335H21.3894L25.9587 8.63634Z" stroke="white" stroke-miterlimit="10"/>
<path d="M22.3771 10.5133C21.8223 10.756 21.2355 10.9175 20.6346 10.9928C21.2678 10.6167 21.7408 10.0213 21.9638 9.31962C21.3722 9.67231 20.7239 9.91997 20.0478 10.0516C19.6328 9.60934 19.0944 9.30195 18.5025 9.16937C17.9106 9.03679 17.2925 9.08513 16.7284 9.30813C16.1643 9.53112 15.6803 9.91847 15.3391 10.4199C14.998 10.9214 14.8154 11.5137 14.8152 12.1202C14.8131 12.3515 14.8362 12.5825 14.8841 12.8088C13.6811 12.7499 12.5041 12.4377 11.43 11.8927C10.356 11.3477 9.40916 10.5821 8.65144 9.6461C8.26305 10.3117 8.14289 11.1002 8.31541 11.8512C8.48792 12.6022 8.94015 13.2593 9.58009 13.6888C9.10192 13.6753 8.63391 13.5476 8.21518 13.3164V13.3495C8.21575 14.0478 8.45673 14.7247 8.89764 15.2662C9.33855 15.8078 9.9525 16.1812 10.6363 16.3235C10.3782 16.3913 10.1123 16.4247 9.84542 16.423C9.6527 16.4259 9.46024 16.408 9.27139 16.3694C9.46787 16.9691 9.84493 17.4934 10.351 17.8705C10.857 18.2476 11.4672 18.4592 12.0982 18.4762C11.0278 19.314 9.70721 19.7685 8.34784 19.7668C8.10573 19.7674 7.8638 19.7538 7.62329 19.726C9.00715 20.6155 10.6188 21.0859 12.264 21.0804C17.8282 21.0804 20.8719 16.4715 20.8719 12.4772C20.8719 12.3446 20.8719 12.2222 20.8719 12.087C21.4648 11.6579 21.9749 11.1247 22.3771 10.5133Z" fill="#12154B"/>
<path d="M26.692 6.60254C26.945 6.38681 26.6424 5.61676 26.0161 4.88259C25.3898 4.14842 24.6769 3.72814 24.4239 3.94386C24.1709 4.15959 24.4736 4.92964 25.0999 5.66381C25.7262 6.39798 26.439 6.81826 26.692 6.60254Z" fill="white"/>
<defs>
<linearGradient id="paint0_linear_77:2901" x1="0" y1="15" x2="30" y2="15" gradientUnits="userSpaceOnUse">
<stop stop-color="#FFD64C"/>
<stop offset="0.29" stop-color="#FCD74E"/>
<stop offset="0.61" stop-color="#F69E1C"/>
<stop offset="1" stop-color="#F7650F"/>
</linearGradient>
</defs>
</svg>
